# xmcd
#
# Track frame offsets:
#	150
#	20492
#	38267
#	55572
#	74965
#	91270
#	108102
#	130052
#	147135
#	163817
#	176312
#	190747
#
# Disc length: 2767 seconds
#
# Revision: 0
# Processed by: cddbd v1.5.2PL0 Copyright (c) Steve Scherf et al.
# Submitted via: dBpowerAMP V4.0
#
DISCID=950acd0c
DTITLE=N.ZOUDIARHS-AP.RIZOS - "Enas Kyknos Klaiei"
DYEAR=2000
DGENRE=Entechno
TTITLE0="Enas Kyknos Klaiei"
TTITLE1="Na'maste Mazi"
TTITLE2="Ti Na Thymithw"
TTITLE3="Alla Topia"
TTITLE4="Oi Thisauroi Twn Skoupidiwn"
TTITLE5="Ekeini Tin Mera"
TTITLE6="Otan Sigobrechei Eisai Edw"
TTITLE7="Petalouda"
TTITLE8="Oreini Grammi"
TTITLE9="Glob"
TTITLE10="Daskalos"
TTITLE11="Ta Dika Mou Oneira"
EXTD=
EXTT0=
EXTT1=
EXTT2=
EXTT3=
EXTT4=
EXTT5=
EXTT6=
EXTT7=
EXTT8=
EXTT9=
EXTT10=
EXTT11=
PLAYORDER=
